<mxfile host="app.diagrams.net" modified="2022-03-21T04:10:06.880Z" agent="5.0 (Windows NT 10.0; Win64; x64) AppleWebKit/537.36 (KHTML, like Gecko) Chrome/97.0.4692.99 Safari/537.36" etag="srrB9CyI6JyzaITUdGB2" version="17.1.2" type="github">
  <diagram id="yPxyJZ8AM_hMuL3Unpa9" name="gitflow">
    <mxGraphModel dx="948" dy="529" grid="1" gridSize="10" guides="1" tooltips="1" connect="1" arrows="1" fold="1" page="1" pageScale="1" pageWidth="850" pageHeight="1100" math="0" shadow="0">
      <root>
        <mxCell id="0" />
        <mxCell id="1" parent="0" />
        <mxCell id="3rDfnHJsxuXhCNC1LLwp-324" value="" style="whiteSpace=wrap;html=1;rounded=0;shadow=0;strokeWidth=1;fontSize=14" vertex="1" parent="1">
          <mxGeometry x="670" y="270" width="60" height="50" as="geometry" />
        </mxCell>
        <mxCell id="3rDfnHJsxuXhCNC1LLwp-325" value="缓存命中率" style="whiteSpace=wrap;html=1;rounded=0;shadow=0;strokeWidth=1;fontSize=14" vertex="1" parent="1">
          <mxGeometry x="730" y="270" width="110.03" height="50" as="geometry" />
        </mxCell>
        <mxCell id="3rDfnHJsxuXhCNC1LLwp-326" value="" style="whiteSpace=wrap;html=1;rounded=0;shadow=0;strokeWidth=1;fontSize=14" vertex="1" parent="1">
          <mxGeometry x="670" y="220" width="60" height="50" as="geometry" />
        </mxCell>
        <mxCell id="3rDfnHJsxuXhCNC1LLwp-327" value="&lt;span style=&quot;font-size: 12px&quot;&gt;缓存过期&lt;/span&gt;" style="whiteSpace=wrap;html=1;rounded=0;shadow=0;strokeWidth=1;fontSize=14" vertex="1" parent="1">
          <mxGeometry x="730" y="220" width="110.03" height="50" as="geometry" />
        </mxCell>
        <mxCell id="3rDfnHJsxuXhCNC1LLwp-328" value="" style="whiteSpace=wrap;html=1;rounded=0;shadow=0;strokeWidth=1;fontSize=14" vertex="1" parent="1">
          <mxGeometry x="670" y="170" width="60" height="50" as="geometry" />
        </mxCell>
        <mxCell id="3rDfnHJsxuXhCNC1LLwp-329" value="&lt;span style=&quot;font-size: 12px&quot;&gt;读缓存&lt;/span&gt;" style="whiteSpace=wrap;html=1;rounded=0;shadow=0;strokeWidth=1;fontSize=14" vertex="1" parent="1">
          <mxGeometry x="730" y="170" width="110.03" height="50" as="geometry" />
        </mxCell>
        <mxCell id="3rDfnHJsxuXhCNC1LLwp-330" value="" style="whiteSpace=wrap;html=1;rounded=0;shadow=0;strokeWidth=1;fontSize=14" vertex="1" parent="1">
          <mxGeometry x="670" y="120" width="60" height="50" as="geometry" />
        </mxCell>
        <mxCell id="3rDfnHJsxuXhCNC1LLwp-331" value="&lt;span style=&quot;font-size: 12px&quot;&gt;写缓存&lt;/span&gt;" style="whiteSpace=wrap;html=1;rounded=0;shadow=0;strokeWidth=1;fontSize=14" vertex="1" parent="1">
          <mxGeometry x="730" y="120" width="110.03" height="50" as="geometry" />
        </mxCell>
        <mxCell id="3" value="" style="endArrow=none;dashed=1;html=1;fillColor=#dae8fc;strokeColor=#6c8ebf;exitX=1;exitY=0.5;exitDx=0;exitDy=0;startArrow=none;" parent="1" source="3rDfnHJsxuXhCNC1LLwp-306" edge="1">
          <mxGeometry width="50" height="50" relative="1" as="geometry">
            <mxPoint x="780" y="80" as="sourcePoint" />
            <mxPoint x="740" y="80" as="targetPoint" />
          </mxGeometry>
        </mxCell>
        <mxCell id="4" value="W1" style="ellipse;whiteSpace=wrap;html=1;aspect=fixed;fillColor=#dae8fc;strokeColor=#6c8ebf;fontStyle=1;labelPosition=center;verticalLabelPosition=top;align=center;verticalAlign=bottom;fontColor=#7EA6E0;" parent="1" vertex="1">
          <mxGeometry x="30" y="70" width="20" height="20" as="geometry" />
        </mxCell>
        <mxCell id="25" value="R2" style="ellipse;whiteSpace=wrap;html=1;aspect=fixed;fillColor=#d5e8d4;strokeColor=#82b366;labelPosition=left;verticalLabelPosition=middle;align=right;verticalAlign=middle;fontColor=#97D077;" parent="1" vertex="1">
          <mxGeometry x="190.5" y="230" width="20" height="20" as="geometry" />
        </mxCell>
        <mxCell id="26" style="edgeStyle=orthogonalEdgeStyle;rounded=1;orthogonalLoop=1;jettySize=auto;html=1;dashed=1;endArrow=none;endFill=0;fillColor=#d5e8d4;strokeColor=#82b366;entryX=0.5;entryY=0;entryDx=0;entryDy=0;" parent="1" target="25" edge="1">
          <mxGeometry relative="1" as="geometry">
            <mxPoint x="677" y="210" as="targetPoint" />
            <mxPoint x="200" y="160" as="sourcePoint" />
            <Array as="points">
              <mxPoint x="200" y="230" />
            </Array>
          </mxGeometry>
        </mxCell>
        <mxCell id="44" style="edgeStyle=orthogonalEdgeStyle;rounded=1;orthogonalLoop=1;jettySize=auto;html=1;dashed=1;endArrow=none;endFill=0;fontSize=10;fontColor=#FFB570;fillColor=#ffe6cc;strokeColor=#d79b00;entryX=0.5;entryY=0;entryDx=0;entryDy=0;" parent="1" target="39" edge="1">
          <mxGeometry relative="1" as="geometry">
            <Array as="points">
              <mxPoint x="120" y="150" />
            </Array>
            <mxPoint x="120" y="80" as="sourcePoint" />
          </mxGeometry>
        </mxCell>
        <mxCell id="39" value="R1" style="ellipse;whiteSpace=wrap;html=1;aspect=fixed;fontSize=10;labelPosition=left;verticalLabelPosition=middle;align=right;verticalAlign=middle;fillColor=#ffe6cc;strokeColor=#d79b00;fontColor=#FFB570;" parent="1" vertex="1">
          <mxGeometry x="108.99999999999994" y="150" width="20" height="20" as="geometry" />
        </mxCell>
        <mxCell id="65" value="R3" style="ellipse;whiteSpace=wrap;html=1;aspect=fixed;fontSize=10;fillColor=#e1d5e7;strokeColor=#9673a6;labelPosition=left;verticalLabelPosition=middle;align=right;verticalAlign=middle;fontColor=#CDA2BE;" parent="1" vertex="1">
          <mxGeometry x="271" y="310" width="20" height="20" as="geometry" />
        </mxCell>
        <mxCell id="116" style="edgeStyle=orthogonalEdgeStyle;rounded=1;orthogonalLoop=1;jettySize=auto;html=1;dashed=1;endArrow=none;endFill=0;fontSize=12;fontColor=#FFB570;fillColor=#e1d5e7;strokeColor=#9673a6;entryX=0.5;entryY=0;entryDx=0;entryDy=0;" parent="1" target="65" edge="1">
          <mxGeometry relative="1" as="geometry">
            <mxPoint x="281" y="240" as="sourcePoint" />
            <mxPoint x="206.97" y="320" as="targetPoint" />
            <Array as="points">
              <mxPoint x="280" y="240" />
              <mxPoint x="280" y="310" />
            </Array>
          </mxGeometry>
        </mxCell>
        <mxCell id="3rDfnHJsxuXhCNC1LLwp-267" value="expire" style="shape=sumEllipse;perimeter=ellipsePerimeter;whiteSpace=wrap;html=1;backgroundOutline=1;labelPosition=center;verticalLabelPosition=top;align=center;verticalAlign=bottom;fillColor=#dae8fc;strokeColor=#6c8ebf;fontColor=#7EA6E0;" vertex="1" parent="1">
          <mxGeometry x="129.00000000000003" y="70" width="20" height="20" as="geometry" />
        </mxCell>
        <mxCell id="3rDfnHJsxuXhCNC1LLwp-268" value="" style="endArrow=none;dashed=1;html=1;fillColor=#dae8fc;strokeColor=#6c8ebf;labelPosition=center;verticalLabelPosition=top;align=center;verticalAlign=bottom;fontSize=6;startArrow=none;" edge="1" parent="1" source="3rDfnHJsxuXhCNC1LLwp-296" target="3rDfnHJsxuXhCNC1LLwp-267">
          <mxGeometry width="50" height="50" relative="1" as="geometry">
            <mxPoint x="50" y="80" as="sourcePoint" />
            <mxPoint x="640" y="80" as="targetPoint" />
            <Array as="points" />
          </mxGeometry>
        </mxCell>
        <mxCell id="3rDfnHJsxuXhCNC1LLwp-270" value="" style="edgeStyle=orthogonalEdgeStyle;rounded=1;orthogonalLoop=1;jettySize=auto;html=1;dashed=1;endArrow=none;endFill=0;fontSize=12;fontColor=#FFB570;fillColor=#ffe6cc;strokeColor=#d79b00;startArrow=none;" edge="1" parent="1" source="42" target="3rDfnHJsxuXhCNC1LLwp-269">
          <mxGeometry relative="1" as="geometry">
            <mxPoint x="100" y="140" as="sourcePoint" />
            <mxPoint x="434.6600000000001" y="160" as="targetPoint" />
            <Array as="points" />
          </mxGeometry>
        </mxCell>
        <mxCell id="3rDfnHJsxuXhCNC1LLwp-274" value="" style="edgeStyle=orthogonalEdgeStyle;rounded=1;orthogonalLoop=1;jettySize=auto;html=1;dashed=1;endArrow=none;endFill=0;fillColor=#d5e8d4;strokeColor=#82b366;startArrow=none;entryX=0.5;entryY=1;entryDx=0;entryDy=0;" edge="1" parent="1" source="24" target="3rDfnHJsxuXhCNC1LLwp-273">
          <mxGeometry relative="1" as="geometry">
            <mxPoint x="269.97" y="190" as="targetPoint" />
            <mxPoint x="150" y="190" as="sourcePoint" />
            <Array as="points">
              <mxPoint x="360" y="240" />
            </Array>
          </mxGeometry>
        </mxCell>
        <mxCell id="3rDfnHJsxuXhCNC1LLwp-278" value="" style="edgeStyle=orthogonalEdgeStyle;rounded=1;orthogonalLoop=1;jettySize=auto;html=1;dashed=1;endArrow=none;endFill=0;fontSize=12;fontColor=#FFB570;fillColor=#e1d5e7;strokeColor=#9673a6;startArrow=none;" edge="1" parent="1" source="86" target="3rDfnHJsxuXhCNC1LLwp-276">
          <mxGeometry relative="1" as="geometry">
            <mxPoint x="206.97000000000003" y="250" as="sourcePoint" />
            <mxPoint x="610" y="80" as="targetPoint" />
          </mxGeometry>
        </mxCell>
        <mxCell id="3rDfnHJsxuXhCNC1LLwp-269" value="expire" style="shape=sumEllipse;perimeter=ellipsePerimeter;whiteSpace=wrap;html=1;backgroundOutline=1;labelPosition=center;verticalLabelPosition=top;align=center;verticalAlign=bottom;fillColor=#ffe6cc;strokeColor=#d79b00;fontColor=#FFB570;" vertex="1" parent="1">
          <mxGeometry x="249.5" y="70" width="20" height="20" as="geometry" />
        </mxCell>
        <mxCell id="3rDfnHJsxuXhCNC1LLwp-279" value="" style="endArrow=none;dashed=1;html=1;fillColor=#dae8fc;strokeColor=#6c8ebf;startArrow=none;" edge="1" parent="1" source="3rDfnHJsxuXhCNC1LLwp-267" target="3rDfnHJsxuXhCNC1LLwp-269">
          <mxGeometry width="50" height="50" relative="1" as="geometry">
            <mxPoint x="140" y="80" as="sourcePoint" />
            <mxPoint x="640" y="80" as="targetPoint" />
            <Array as="points" />
          </mxGeometry>
        </mxCell>
        <mxCell id="3rDfnHJsxuXhCNC1LLwp-273" value="expire" style="shape=sumEllipse;perimeter=ellipsePerimeter;whiteSpace=wrap;html=1;backgroundOutline=1;labelPosition=center;verticalLabelPosition=top;align=center;verticalAlign=bottom;fillColor=#d5e8d4;strokeColor=#82b366;fontColor=#97D077;" vertex="1" parent="1">
          <mxGeometry x="350" y="70" width="20" height="20" as="geometry" />
        </mxCell>
        <mxCell id="3rDfnHJsxuXhCNC1LLwp-280" value="" style="endArrow=none;dashed=1;html=1;fillColor=#dae8fc;strokeColor=#6c8ebf;startArrow=none;" edge="1" parent="1" source="3rDfnHJsxuXhCNC1LLwp-269" target="3rDfnHJsxuXhCNC1LLwp-273">
          <mxGeometry width="50" height="50" relative="1" as="geometry">
            <mxPoint x="229.97000000000003" y="80" as="sourcePoint" />
            <mxPoint x="640" y="80" as="targetPoint" />
            <Array as="points" />
          </mxGeometry>
        </mxCell>
        <mxCell id="3rDfnHJsxuXhCNC1LLwp-276" value="expire" style="shape=sumEllipse;perimeter=ellipsePerimeter;whiteSpace=wrap;html=1;backgroundOutline=1;labelPosition=center;verticalLabelPosition=top;align=center;verticalAlign=bottom;fillColor=#e1d5e7;strokeColor=#9673a6;fontColor=#CDA2BE;" vertex="1" parent="1">
          <mxGeometry x="450" y="70" width="20" height="20" as="geometry" />
        </mxCell>
        <mxCell id="3rDfnHJsxuXhCNC1LLwp-281" value="" style="endArrow=none;dashed=1;html=1;fillColor=#dae8fc;strokeColor=#6c8ebf;startArrow=none;" edge="1" parent="1" source="3rDfnHJsxuXhCNC1LLwp-273" target="3rDfnHJsxuXhCNC1LLwp-276">
          <mxGeometry width="50" height="50" relative="1" as="geometry">
            <mxPoint x="330" y="80" as="sourcePoint" />
            <mxPoint x="640" y="80" as="targetPoint" />
            <Array as="points" />
          </mxGeometry>
        </mxCell>
        <mxCell id="3rDfnHJsxuXhCNC1LLwp-282" value="W1" style="ellipse;whiteSpace=wrap;html=1;aspect=fixed;fillColor=#dae8fc;strokeColor=#6c8ebf;fontStyle=1;labelPosition=center;verticalLabelPosition=top;align=center;verticalAlign=bottom;fontColor=#7EA6E0;" vertex="1" parent="1">
          <mxGeometry x="690" y="140" width="20" height="20" as="geometry" />
        </mxCell>
        <mxCell id="3rDfnHJsxuXhCNC1LLwp-284" value="R1" style="ellipse;whiteSpace=wrap;html=1;aspect=fixed;fontSize=10;labelPosition=center;verticalLabelPosition=top;align=center;verticalAlign=bottom;fillColor=#ffe6cc;strokeColor=#d79b00;fontColor=#FFB570;" vertex="1" parent="1">
          <mxGeometry x="690" y="190" width="20" height="20" as="geometry" />
        </mxCell>
        <mxCell id="3rDfnHJsxuXhCNC1LLwp-287" value="expire" style="shape=sumEllipse;perimeter=ellipsePerimeter;whiteSpace=wrap;html=1;backgroundOutline=1;labelPosition=center;verticalLabelPosition=top;align=center;verticalAlign=bottom;fillColor=#d5e8d4;strokeColor=#82b366;fontColor=#97D077;" vertex="1" parent="1">
          <mxGeometry x="690" y="240" width="20" height="20" as="geometry" />
        </mxCell>
        <mxCell id="3rDfnHJsxuXhCNC1LLwp-291" value="" style="endArrow=none;dashed=1;html=1;fillColor=#dae8fc;strokeColor=#6c8ebf;startArrow=none;" edge="1" parent="1" source="6">
          <mxGeometry width="50" height="50" relative="1" as="geometry">
            <mxPoint x="429.9700000000107" y="80" as="sourcePoint" />
            <mxPoint x="500" y="80" as="targetPoint" />
            <Array as="points" />
          </mxGeometry>
        </mxCell>
        <mxCell id="3rDfnHJsxuXhCNC1LLwp-296" value="0%" style="text;html=1;strokeColor=#6c8ebf;fillColor=#dae8fc;align=center;verticalAlign=middle;whiteSpace=wrap;rounded=0;fontColor=#7EA6E0;" vertex="1" parent="1">
          <mxGeometry x="59" y="70" width="50" height="20" as="geometry" />
        </mxCell>
        <mxCell id="3rDfnHJsxuXhCNC1LLwp-297" value="" style="endArrow=none;dashed=1;html=1;fillColor=#dae8fc;strokeColor=#6c8ebf;labelPosition=center;verticalLabelPosition=top;align=center;verticalAlign=bottom;fontSize=6;" edge="1" parent="1" source="4" target="3rDfnHJsxuXhCNC1LLwp-296">
          <mxGeometry width="50" height="50" relative="1" as="geometry">
            <mxPoint x="50" y="80" as="sourcePoint" />
            <mxPoint x="120" y="80" as="targetPoint" />
            <Array as="points" />
          </mxGeometry>
        </mxCell>
        <mxCell id="42" value="50%" style="text;html=1;strokeColor=#d79b00;fillColor=#ffe6cc;align=center;verticalAlign=middle;whiteSpace=wrap;rounded=0;fontSize=12;fontColor=#FFB570;" parent="1" vertex="1">
          <mxGeometry x="138.00000000000003" y="150" width="50" height="20" as="geometry" />
        </mxCell>
        <mxCell id="3rDfnHJsxuXhCNC1LLwp-300" value="" style="edgeStyle=orthogonalEdgeStyle;rounded=1;orthogonalLoop=1;jettySize=auto;html=1;dashed=1;endArrow=none;endFill=0;fontSize=12;fontColor=#FFB570;fillColor=#ffe6cc;strokeColor=#d79b00;" edge="1" parent="1" source="39" target="42">
          <mxGeometry relative="1" as="geometry">
            <mxPoint x="129" y="160" as="sourcePoint" />
            <mxPoint x="248.97000000000003" y="110" as="targetPoint" />
            <Array as="points">
              <mxPoint x="139" y="160" />
              <mxPoint x="139" y="160" />
            </Array>
          </mxGeometry>
        </mxCell>
        <mxCell id="24" value="66.7%" style="text;html=1;strokeColor=#82b366;fillColor=#d5e8d4;align=center;verticalAlign=middle;whiteSpace=wrap;rounded=0;fontColor=#97D077;" parent="1" vertex="1">
          <mxGeometry x="219.5" y="230" width="50" height="20" as="geometry" />
        </mxCell>
        <mxCell id="3rDfnHJsxuXhCNC1LLwp-301" value="" style="edgeStyle=orthogonalEdgeStyle;rounded=1;orthogonalLoop=1;jettySize=auto;html=1;dashed=1;endArrow=none;endFill=0;fillColor=#d5e8d4;strokeColor=#82b366;" edge="1" parent="1" source="25" target="24">
          <mxGeometry relative="1" as="geometry">
            <mxPoint x="380.5" y="140" as="targetPoint" />
            <mxPoint x="210.5" y="240" as="sourcePoint" />
            <Array as="points">
              <mxPoint x="220.5" y="240" />
              <mxPoint x="220.5" y="240" />
            </Array>
          </mxGeometry>
        </mxCell>
        <mxCell id="86" value="75%" style="text;html=1;strokeColor=#9673a6;fillColor=#e1d5e7;align=center;verticalAlign=middle;whiteSpace=wrap;rounded=0;fontColor=#CDA2BE;" parent="1" vertex="1">
          <mxGeometry x="300" y="310" width="50" height="20" as="geometry" />
        </mxCell>
        <mxCell id="3rDfnHJsxuXhCNC1LLwp-302" value="" style="edgeStyle=orthogonalEdgeStyle;rounded=1;orthogonalLoop=1;jettySize=auto;html=1;dashed=1;endArrow=none;endFill=0;fontSize=12;fontColor=#FFB570;fillColor=#e1d5e7;strokeColor=#9673a6;" edge="1" parent="1" source="65" target="86">
          <mxGeometry relative="1" as="geometry">
            <mxPoint x="291" y="320" as="sourcePoint" />
            <mxPoint x="504" y="160" as="targetPoint" />
            <Array as="points">
              <mxPoint x="304.03" y="320" />
              <mxPoint x="304.03" y="320" />
            </Array>
          </mxGeometry>
        </mxCell>
        <mxCell id="6" value="W2" style="ellipse;whiteSpace=wrap;html=1;aspect=fixed;fillColor=#dae8fc;strokeColor=#6c8ebf;fontStyle=1;labelPosition=center;verticalLabelPosition=top;align=center;verticalAlign=bottom;fontColor=#7EA6E0;" parent="1" vertex="1">
          <mxGeometry x="490" y="70" width="20" height="20" as="geometry" />
        </mxCell>
        <mxCell id="3rDfnHJsxuXhCNC1LLwp-303" value="" style="endArrow=none;dashed=1;html=1;fillColor=#dae8fc;strokeColor=#6c8ebf;startArrow=none;" edge="1" parent="1" source="3rDfnHJsxuXhCNC1LLwp-276" target="6">
          <mxGeometry width="50" height="50" relative="1" as="geometry">
            <mxPoint x="429.9700000000107" y="80" as="sourcePoint" />
            <mxPoint x="500" y="80" as="targetPoint" />
            <Array as="points" />
          </mxGeometry>
        </mxCell>
        <mxCell id="3rDfnHJsxuXhCNC1LLwp-304" value="60%" style="text;html=1;strokeColor=#6c8ebf;fillColor=#dae8fc;align=center;verticalAlign=middle;whiteSpace=wrap;rounded=0;fontColor=#7EA6E0;" vertex="1" parent="1">
          <mxGeometry x="520" y="70" width="50" height="20" as="geometry" />
        </mxCell>
        <mxCell id="3rDfnHJsxuXhCNC1LLwp-305" value="" style="endArrow=none;dashed=1;html=1;fillColor=#dae8fc;strokeColor=#6c8ebf;exitX=1;exitY=0.5;exitDx=0;exitDy=0;" edge="1" parent="1" source="6" target="3rDfnHJsxuXhCNC1LLwp-304">
          <mxGeometry width="50" height="50" relative="1" as="geometry">
            <mxPoint x="510" y="80" as="sourcePoint" />
            <mxPoint x="700" y="80" as="targetPoint" />
          </mxGeometry>
        </mxCell>
        <mxCell id="3rDfnHJsxuXhCNC1LLwp-306" value="expire" style="shape=sumEllipse;perimeter=ellipsePerimeter;whiteSpace=wrap;html=1;backgroundOutline=1;labelPosition=center;verticalLabelPosition=top;align=center;verticalAlign=bottom;fillColor=#dae8fc;strokeColor=#6c8ebf;fontColor=#7EA6E0;" vertex="1" parent="1">
          <mxGeometry x="670" y="70" width="20" height="20" as="geometry" />
        </mxCell>
        <mxCell id="3rDfnHJsxuXhCNC1LLwp-307" value="" style="endArrow=none;dashed=1;html=1;fillColor=#dae8fc;strokeColor=#6c8ebf;exitX=1;exitY=0.5;exitDx=0;exitDy=0;startArrow=none;" edge="1" parent="1" source="3rDfnHJsxuXhCNC1LLwp-304" target="3rDfnHJsxuXhCNC1LLwp-306">
          <mxGeometry width="50" height="50" relative="1" as="geometry">
            <mxPoint x="570" y="80" as="sourcePoint" />
            <mxPoint x="700" y="80" as="targetPoint" />
          </mxGeometry>
        </mxCell>
        <mxCell id="3rDfnHJsxuXhCNC1LLwp-308" value="" style="endArrow=none;dashed=1;html=1;fillColor=#dae8fc;strokeColor=#6c8ebf;exitX=1;exitY=0.5;exitDx=0;exitDy=0;startArrow=none;" edge="1" parent="1" source="3rDfnHJsxuXhCNC1LLwp-313">
          <mxGeometry width="50" height="50" relative="1" as="geometry">
            <mxPoint x="924" y="80" as="sourcePoint" />
            <mxPoint x="850" y="80" as="targetPoint" />
          </mxGeometry>
        </mxCell>
        <mxCell id="3rDfnHJsxuXhCNC1LLwp-309" value="" style="endArrow=none;dashed=1;html=1;fillColor=#dae8fc;strokeColor=#6c8ebf;startArrow=none;" edge="1" parent="1" source="3rDfnHJsxuXhCNC1LLwp-310">
          <mxGeometry width="50" height="50" relative="1" as="geometry">
            <mxPoint x="653.9700000000107" y="80" as="sourcePoint" />
            <mxPoint x="724" y="80" as="targetPoint" />
            <Array as="points" />
          </mxGeometry>
        </mxCell>
        <mxCell id="3rDfnHJsxuXhCNC1LLwp-310" value="W3" style="ellipse;whiteSpace=wrap;html=1;aspect=fixed;fillColor=#dae8fc;strokeColor=#6c8ebf;fontStyle=1;labelPosition=center;verticalLabelPosition=top;align=center;verticalAlign=bottom;fontColor=#7EA6E0;" vertex="1" parent="1">
          <mxGeometry x="714" y="70" width="20" height="20" as="geometry" />
        </mxCell>
        <mxCell id="3rDfnHJsxuXhCNC1LLwp-311" value="50%" style="text;html=1;strokeColor=#6c8ebf;fillColor=#dae8fc;align=center;verticalAlign=middle;whiteSpace=wrap;rounded=0;fontColor=#7EA6E0;" vertex="1" parent="1">
          <mxGeometry x="744" y="70" width="50" height="20" as="geometry" />
        </mxCell>
        <mxCell id="3rDfnHJsxuXhCNC1LLwp-312" value="" style="endArrow=none;dashed=1;html=1;fillColor=#dae8fc;strokeColor=#6c8ebf;exitX=1;exitY=0.5;exitDx=0;exitDy=0;" edge="1" parent="1" source="3rDfnHJsxuXhCNC1LLwp-310" target="3rDfnHJsxuXhCNC1LLwp-311">
          <mxGeometry width="50" height="50" relative="1" as="geometry">
            <mxPoint x="734" y="80" as="sourcePoint" />
            <mxPoint x="924" y="80" as="targetPoint" />
          </mxGeometry>
        </mxCell>
        <mxCell id="3rDfnHJsxuXhCNC1LLwp-313" value="expire" style="shape=sumEllipse;perimeter=ellipsePerimeter;whiteSpace=wrap;html=1;backgroundOutline=1;labelPosition=center;verticalLabelPosition=top;align=center;verticalAlign=bottom;fillColor=#dae8fc;strokeColor=#6c8ebf;fontColor=#7EA6E0;" vertex="1" parent="1">
          <mxGeometry x="820.03" y="70" width="20" height="20" as="geometry" />
        </mxCell>
        <mxCell id="3rDfnHJsxuXhCNC1LLwp-314" value="" style="endArrow=none;dashed=1;html=1;fillColor=#dae8fc;strokeColor=#6c8ebf;exitX=1;exitY=0.5;exitDx=0;exitDy=0;startArrow=none;" edge="1" parent="1" source="3rDfnHJsxuXhCNC1LLwp-311" target="3rDfnHJsxuXhCNC1LLwp-313">
          <mxGeometry width="50" height="50" relative="1" as="geometry">
            <mxPoint x="754" y="80" as="sourcePoint" />
            <mxPoint x="884" y="80" as="targetPoint" />
          </mxGeometry>
        </mxCell>
        <mxCell id="3rDfnHJsxuXhCNC1LLwp-339" value="75%" style="text;html=1;strokeColor=#9673a6;fillColor=#e1d5e7;align=center;verticalAlign=middle;whiteSpace=wrap;rounded=0;fontColor=#CDA2BE;" vertex="1" parent="1">
          <mxGeometry x="675" y="285" width="50" height="20" as="geometry" />
        </mxCell>
      </root>
    </mxGraphModel>
  </diagram>
</mxfile>
